HIERARCHY
ROOT Hips
{
	OFFSET 0.00000 0.00000 0.00000
	CHANNELS 6 Xposition Yposition Zposition Zrotation Yrotation Xrotation 
	JOINT LHipJoint
	{
		OFFSET 0 0 0
		CHANNELS 3 Zrotation Yrotation Xrotation
		JOINT LeftHip
		{
			OFFSET 1.77779 -1.88989 0.48267
			CHANNELS 3 Zrotation Yrotation Xrotation
			JOINT LeftKnee
			{
				OFFSET 2.53442 -6.96327 0.00000
				CHANNELS 3 Zrotation Yrotation Xrotation
				JOINT LeftAnkle
				{
					OFFSET 2.71068 -7.44755 0.00000
					CHANNELS 3 Zrotation Yrotation Xrotation
					JOINT LeftToe
					{
						OFFSET 0.17992 -0.49431 2.22524
						CHANNELS 3 Zrotation Yrotation Xrotation
						End Site
						{
							OFFSET 0.00000 -0.00000 1.14687
						}
					}
				}
			}
		}
	}
	JOINT RHipJoint
	{
		OFFSET 0 0 0
		CHANNELS 3 Zrotation Yrotation Xrotation
		JOINT RightHip
		{
			OFFSET -1.58469 -1.88989 0.48267
			CHANNELS 3 Zrotation Yrotation Xrotation
			JOINT RightKnee
			{
				OFFSET -2.60386 -7.15404 0.00000
				CHANNELS 3 Zrotation Yrotation Xrotation
				JOINT RightAnkle
				{
					OFFSET -2.73334 -7.50979 0.00000
					CHANNELS 3 Zrotation Yrotation Xrotation
					JOINT RightToe
					{
						OFFSET -0.25618 -0.70384 2.21822
						CHANNELS 3 Zrotation Yrotation Xrotation
						End Site
						{
							OFFSET -0.00000 -0.00000 1.16381
						}
					}
				}
			}
		}
	}
	JOINT lowerback
	{
		OFFSET 0 0 0
		CHANNELS 3 Zrotation Yrotation Xrotation
		JOINT Chest
		{
			OFFSET 0.03410 2.01612 -0.22230
			CHANNELS 3 Zrotation Yrotation Xrotation
			JOINT Chest2
			{
				OFFSET 0.03465 2.03012 0.00937
				CHANNELS 3 Zrotation Yrotation Xrotation
				JOINT lowerneck
				{
					OFFSET 0 0 0
					CHANNELS 3 Zrotation Yrotation Xrotation
					JOINT Neck
					{
						OFFSET -0.00219 1.70459 0.20857
						CHANNELS 3 Zrotation Yrotation Xrotation
						JOINT Head
						{
							OFFSET 0.02518 1.72339 -0.22179
							CHANNELS 3 Zrotation Yrotation Xrotation
							End Site
							{
								OFFSET 0.00282 1.74122 -0.09823
							}
						}
					}
				}
				JOINT LeftCollar
				{
					OFFSET 0 0 0
					CHANNELS 3 Zrotation Yrotation Xrotation
					JOINT LeftShoulder
					{
						OFFSET 3.36358 1.00547 -0.37661
CHANNELS 3 Zrotation Xrotation Yrotation
						JOINT LeftElbow
						{
OFFSET 0 -5.065070 0.000000
CHANNELS 3 Zrotation Xrotation Yrotation
							JOINT LeftWrist
							{
OFFSET 0 -3.601960 0.000000
CHANNELS 3 Zrotation Xrotation Yrotation
								JOINT lhand
								{
									OFFSET 0 0 0
CHANNELS 3 Zrotation Xrotation Yrotation
									JOINT LFingers
									{
OFFSET 0 -0.450350 0.000000
CHANNELS 3 Zrotation Xrotation Yrotation
										End Site
										{
OFFSET 0 -0.363080 0.000000
										}
									}
								}
								JOINT LThumb
								{
OFFSET 0 0.000000 0.000000
CHANNELS 3 Zrotation Xrotation Yrotation
									End Site
									{
OFFSET 0 -0.368620 0.368620
									}
								}
							}
						}
					}
				}
				JOINT RightCollar
				{
					OFFSET 0 0 0
					CHANNELS 3 Zrotation Yrotation Xrotation
					JOINT RightShoulder
					{
						OFFSET -3.50159 0.80383 -0.71526
CHANNELS 3 Zrotation Xrotation Yrotation
						JOINT RightElbow
						{
OFFSET 0 -5.363940 0.000000
CHANNELS 3 Zrotation Xrotation Yrotation
							JOINT RightWrist
							{
OFFSET 0 -3.580350 0.000000
CHANNELS 3 Zrotation Xrotation Yrotation
								JOINT rhand
								{
									OFFSET 0 0 0
CHANNELS 3 Zrotation Xrotation Yrotation
									JOINT RFingers
									{
OFFSET 0 -0.663750 0.000000
CHANNELS 3 Zrotation Xrotation Yrotation
										End Site
										{
OFFSET 0 -0.535130 0.000000
										}
									}
								}
								JOINT RThumb
								{
OFFSET 0 0.000000 0.000000
CHANNELS 3 Zrotation Xrotation Yrotation
									End Site
									{
OFFSET 0 -0.543300 0.543300
									}
								}
							}
						}
					}
				}
			}
		}
	}
}
MOTION
Frames: 4
Frame Time: 0.008333333333333333
0.400600 17.762300 -29.032600 -8.918200 -7.138800 1.232000 0.000000 0.000000 0.000000 -3.892800 -14.249900 -24.174900 0.325200 3.665600 10.137700 -0.332200 10.991500 -8.540500 1.215500 -6.993600 -19.696300 0.000000 0.000000 0.000000 33.759700 3.061900 10.372900 -1.555900 -7.872300 22.326900 -1.266300 3.418200 -20.418800 -0.732300 5.467400 -15.246700 7.899700 2.790200 8.531300 2.457600 4.583900 0.306100 -2.384300 2.137400 -4.052200 -1.174000 -3.063400 -17.702400 -1.808700 -3.497400 19.992400 -0.881000 -1.927100 9.199900 0.000000 -0.000000 0.000000 4.149700 11.413300 -24.891800 16.200100 -25.791200 3.732600 25.625800 9.974400 -24.608400 0.000000 0.000000 0.000000 -7.125000 0.000000 0.000000 -4.262000 56.858700 1.240200 0.000000 -0.000000 0.000000 -5.384100 -4.238500 25.222800 -17.542200 -27.567000 -4.335300 -17.094700 -7.789800 -23.682300 0.000000 0.000000 0.000000 7.125000 0.000000 -0.000000 7.487600 5.508200 6.793900
0.413294 17.743843 -28.901272 -8.816308 -7.096396 1.137449 0.000000 0.000000 0.000000 -4.402948 -13.658033 -24.788655 0.408086 4.090391 11.332550 -0.288493 10.452740 -8.577140 1.146474 -6.797569 -19.117538 0.000000 0.000000 0.000000 33.600172 3.020731 10.744858 -1.609625 -8.000129 22.714708 -1.254910 3.601606 -20.293373 -0.785133 5.655266 -15.787724 7.895377 2.750815 8.242159 2.414236 4.484066 0.514825 -2.391916 2.107690 -3.676879 -1.313287 -2.938247 -17.583766 -1.549201 -3.348713 19.669981 -0.743497 -1.838382 9.075159 0.000000 0.000000 0.000000 4.052885 11.283276 -24.642661 16.143013 -25.714146 3.707830 25.434160 9.959785 -24.728750 0.000000 0.000000 0.000000 -7.125000 0.000000 0.000000 -4.515530 56.943645 1.323635 0.000000 0.000000 0.000000 -5.402557 -4.583013 25.274741 -17.489779 -27.498866 -4.311079 -17.029105 -7.702179 -23.753179 0.000000 0.000000 0.000000 7.125000 0.000000 0.000000 7.533229 5.445624 6.845086
0.424535 17.731454 -28.771880 -8.762291 -7.062779 0.978419 0.000000 0.000000 0.000000 -4.886291 -13.046099 -25.170774 0.490451 4.482459 12.439467 -0.234622 9.764135 -8.641851 1.168733 -6.859235 -19.300252 0.000000 0.000000 0.000000 33.507767 2.959534 11.178877 -1.666663 -8.133579 23.120870 -1.239164 3.565251 -20.166382 -0.833759 5.824034 -16.274916 7.869685 2.740655 8.206509 2.401920 4.455004 0.638482 -2.381141 2.102290 -3.530553 -1.406932 -2.895147 -17.326231 -1.361813 -3.312568 19.302590 -0.649924 -1.807033 8.907754 0.000000 0.000000 0.000000 3.973009 11.254328 -24.485180 16.056292 -25.596773 3.670328 25.288014 9.949265 -24.783353 0.000000 0.000000 0.000000 -7.125000 0.000000 0.000000 -4.695012 56.969209 1.379000 0.000000 0.000000 0.000000 -5.441044 -4.718077 25.303228 -17.486871 -27.495100 -4.309717 -16.976390 -7.736595 -23.868062 0.000000 0.000000 0.000000 7.125000 0.000000 0.000000 7.573943 5.336400 6.898618
0.434571 17.723579 -28.643805 -8.748380 -7.044065 0.766033 0.000000 0.000000 0.000000 -5.335841 -12.435280 -25.349290 0.572079 4.842504 13.460231 -0.174427 8.967584 -8.711709 1.243490 -7.067918 -19.917844 0.000000 0.000000 0.000000 33.471260 2.884816 11.663720 -1.726741 -8.271961 23.543289 -1.218239 3.348973 -20.024085 -0.875345 5.964851 -16.682431 7.839762 2.784120 8.411651 2.385601 4.524579 0.722899 -2.397996 2.138152 -3.550518 -1.387295 -2.949162 -17.186786 -1.253543 -3.423673 18.984481 -0.624517 -1.844564 8.774551 0.000000 0.000000 0.000000 3.986664 11.192620 -24.509917 15.923903 -25.417019 3.613386 25.142293 9.919264 -24.870638 0.000000 0.000000 0.000000 -7.125000 0.000000 0.000000 -4.889892 57.028387 1.446266 0.000000 0.000000 0.000000 -5.438750 -4.756831 25.190289 -17.523715 -27.543012 -4.326714 -16.943850 -7.849930 -24.025880 0.000000 0.000000 0.000000 7.125000 0.000000 0.000000 7.605215 5.180575 6.950247
